<?xml version="1.0" encoding="iso-8859-1"?>
<!-- Generator: Adobe Illustrator 18.0.0, SVG Export Plug-In . SVG Version: 6.00 Build 0)  -->
<!DOCTYPE svg PUBLIC "-//W3C//DTD SVG 1.1//EN" "http://www.w3.org/Graphics/SVG/1.1/DTD/svg11.dtd">
<svg version="1.1" id="Capa_1" xmlns="http://www.w3.org/2000/svg" xmlns:xlink="http://www.w3.org/1999/xlink" x="0px" y="0px"
	 viewBox="0 0 297 297" style="enable-background:new 0 0 297 297;" xml:space="preserve">
<g>
	<path style="fill:#ca1000;" d="M109.265,133.397c-12.654,0-22.949,10.295-22.949,22.95c0,12.654,10.295,22.949,22.949,22.949
		c12.655,0,22.95-10.295,22.95-22.949C132.215,143.692,121.92,133.397,109.265,133.397z M109.265,164.785
		c-4.653,0-8.438-3.785-8.438-8.438c0-4.653,3.785-8.439,8.438-8.439s8.439,3.786,8.439,8.439
		C117.704,161,113.918,164.785,109.265,164.785z"/>
	<path style="fill:#ca1000;" d="M289.744,235.407H140.061v-44.274c9.617-8.523,15.694-20.955,15.694-34.786c0-17.164-9.357-32.175-23.231-40.228
		l-12.756-23.139h44.425c4.008,0,7.256-3.248,7.256-7.256v-8.439h63.957v16.876h-24.132c-2.515,0-4.85,1.302-6.172,3.441
		c-1.322,2.14-1.443,4.811-0.317,7.06l15.694,31.388c1.272,2.542,3.834,4.012,6.495,4.012c1.09,0,2.197-0.248,3.24-0.768
		c3.583-1.792,5.036-6.15,3.244-9.735l-10.443-20.887h39.295l-10.443,20.887c-1.792,3.584-0.339,7.943,3.244,9.735
		c3.586,1.795,7.943,0.339,9.735-3.244l15.693-31.388c1.125-2.249,1.004-4.92-0.317-7.06c-1.322-2.139-3.657-3.441-6.172-3.441
		h-24.132V76.104c9.109-3.044,15.694-11.648,15.694-21.767c0-12.655-10.295-22.95-22.95-22.95H171.45V22.95
		c0-4.008-3.248-7.256-7.256-7.256H54.337L54.3,15.71c-6.31-0.003-12.706,1.535-18.613,4.791
		c-9.039,4.984-15.597,13.188-18.465,23.104c-2.868,9.915-1.703,20.354,3.279,29.394L63.169,150.4
		c-0.25,1.949-0.394,3.931-0.394,5.947c0,1.798,0.113,3.57,0.313,5.315l-44.246,73.744H7.256c-4.008,0-7.256,3.248-7.256,7.256
		v31.388c0,4.008,3.248,7.256,7.256,7.256h282.489c4.008,0,7.256-3.248,7.256-7.256v-31.388
		C297,238.655,293.752,235.407,289.744,235.407z M109.265,188.326c-17.633,0-31.979-14.346-31.979-31.979
		s14.346-31.979,31.979-31.979s31.979,14.346,31.979,31.979S126.898,188.326,109.265,188.326z M242.663,62.775
		c-4.653,0-8.438-3.785-8.438-8.438s3.785-8.439,8.438-8.439s8.439,3.786,8.439,8.439S247.315,62.775,242.663,62.775z
		 M221.328,45.899c-1.038,2.614-1.614,5.459-1.614,8.439c0,2.979,0.577,5.824,1.614,8.438H171.45V45.899H221.328z M156.939,78.469
		h-45.169L88.185,35.687c-1.082-1.963-2.319-3.787-3.673-5.481h72.427V78.469z M33.21,65.993c-6.424-11.653-2.17-26.36,9.483-32.783
		c3.684-2.031,7.672-2.995,11.609-2.995c8.514,0,16.782,4.509,21.174,12.478l37.097,67.294c-1.094-0.077-2.195-0.131-3.308-0.131
		c-16.743,0-31.444,8.9-39.63,22.214L33.21,65.993z M69.139,179.783c8.078,13.777,23.035,23.055,40.126,23.055
		c5.728,0,11.214-1.048,16.285-2.951v35.52H35.765L69.139,179.783z M282.489,266.794H14.511v-16.876h267.977V266.794z"/>
</g>
<g>
</g>
<g>
</g>
<g>
</g>
<g>
</g>
<g>
</g>
<g>
</g>
<g>
</g>
<g>
</g>
<g>
</g>
<g>
</g>
<g>
</g>
<g>
</g>
<g>
</g>
<g>
</g>
<g>
</g>
</svg>
