<?xml version="1.0" encoding="iso-8859-1"?>
<!-- Generator: Adobe Illustrator 18.0.0, SVG Export Plug-In . SVG Version: 6.00 Build 0)  -->
<!DOCTYPE svg PUBLIC "-//W3C//DTD SVG 1.1//EN" "http://www.w3.org/Graphics/SVG/1.1/DTD/svg11.dtd">
<svg version="1.1" id="Capa_1" xmlns="http://www.w3.org/2000/svg" xmlns:xlink="http://www.w3.org/1999/xlink" x="0px" y="0px"
	 viewBox="0 0 326.123 326.123" style="enable-background:new 0 0 326.123 326.123;" xml:space="preserve">
<path style="fill:#FFF;" d="M164.251,0C76.444,0,5.008,71.436,5.008,159.242c0,29.993,8.32,59.018,24.113,84.279L3.264,312.618
	c-1.373,3.671-0.477,7.805,2.294,10.576c1.91,1.909,4.466,2.929,7.073,2.929c1.176,0,2.362-0.207,3.503-0.635l71.362-26.704
	c23.423,12.902,49.854,19.7,76.754,19.7c87.807,0,159.242-71.436,159.242-159.242C323.493,71.436,252.058,0,164.251,0z
	 M240.984,209.248c-4.447,15.813-21.07,27.288-39.525,27.287c-1.805,0-3.628-0.112-5.391-0.331
	c-22.431-3.225-48.683-18.615-70.274-41.221c-22.737-21.715-38.127-47.963-41.17-70.214c-3.08-22.52,6.997-39.314,26.953-44.926
	c1.025-0.288,2.109-0.434,3.222-0.434c11.69,0,25.615,16.52,30.452,28.363c3.15,7.713,2.911,13.655-0.69,17.186
	c-9.036,8.856-12.404,14.24-12.015,19.205c0.436,5.533,5.586,11.926,14.335,21.098c1.116,1.172,2.61,2.732,4.288,4.417
	c1.567,1.561,3.069,3,4.397,4.27c9.767,9.314,16.145,14.362,21.875,14.362c4.765-0.001,9.931-3.378,18.425-12.045
	c1.287-1.312,3.66-2.875,7.658-2.875c10.542,0,25.419,10.288,32.7,19.897C240.637,199.109,242.282,204.629,240.984,209.248z"/>
<g>
</g>
<g>
</g>
<g>
</g>
<g>
</g>
<g>
</g>
<g>
</g>
<g>
</g>
<g>
</g>
<g>
</g>
<g>
</g>
<g>
</g>
<g>
</g>
<g>
</g>
<g>
</g>
<g>
</g>
</svg>
